<mxfile host="Electron" modified="2023-10-02T12:10:10.507Z" agent="Mozilla/5.0 (X11; Linux x86_64) AppleWebKit/537.36 (KHTML, like Gecko) draw.io/21.7.5 Chrome/114.0.5735.289 Electron/25.8.1 Safari/537.36" etag="vKsmjwdD3ZL3VdYrpYdD" version="21.7.5" type="device">
  <diagram id="C5RBs43oDa-KdzZeNtuy" name="Page-1">
    <mxGraphModel dx="1356" dy="2001" grid="1" gridSize="10" guides="1" tooltips="1" connect="1" arrows="1" fold="1" page="1" pageScale="1" pageWidth="827" pageHeight="1169" background="#296a54" math="0" shadow="0">
      <root>
        <mxCell id="WIyWlLk6GJQsqaUBKTNV-0" />
        <mxCell id="WIyWlLk6GJQsqaUBKTNV-1" parent="WIyWlLk6GJQsqaUBKTNV-0" />
        <mxCell id="UN8iPi8M0M4lKCketsCk-8" value="" style="rounded=1;whiteSpace=wrap;html=1;fontSize=12;glass=0;strokeWidth=1;shadow=0;labelBackgroundColor=none;fillColor=#c08e62;strokeColor=#d19a7a;fontColor=#FEFAE0;" parent="WIyWlLk6GJQsqaUBKTNV-1" vertex="1">
          <mxGeometry x="530" y="120" width="595" height="205" as="geometry" />
        </mxCell>
        <mxCell id="WIyWlLk6GJQsqaUBKTNV-2" value="" style="rounded=0;html=1;jettySize=auto;orthogonalLoop=1;fontSize=11;endArrow=block;endFill=0;endSize=8;strokeWidth=1;shadow=0;labelBackgroundColor=none;edgeStyle=orthogonalEdgeStyle;entryX=0;entryY=0.5;entryDx=0;entryDy=0;strokeColor=#000000;fontColor=default;" parent="WIyWlLk6GJQsqaUBKTNV-1" source="WIyWlLk6GJQsqaUBKTNV-3" target="UN8iPi8M0M4lKCketsCk-2" edge="1">
          <mxGeometry relative="1" as="geometry">
            <mxPoint x="225" y="190" as="targetPoint" />
          </mxGeometry>
        </mxCell>
        <mxCell id="WIyWlLk6GJQsqaUBKTNV-3" value="Фотоловушка 2" style="rounded=1;whiteSpace=wrap;html=1;fontSize=12;glass=0;strokeWidth=1;shadow=0;labelBackgroundColor=none;fillColor=#BC6C25;strokeColor=#DDA15E;fontColor=#FEFAE0;" parent="WIyWlLk6GJQsqaUBKTNV-1" vertex="1">
          <mxGeometry x="45" y="170" width="120" height="40" as="geometry" />
        </mxCell>
        <mxCell id="UN8iPi8M0M4lKCketsCk-0" value="Фотоловушка 3" style="rounded=1;whiteSpace=wrap;html=1;fontSize=12;glass=0;strokeWidth=1;shadow=0;labelBackgroundColor=none;fillColor=#BC6C25;strokeColor=#DDA15E;fontColor=#FEFAE0;" parent="WIyWlLk6GJQsqaUBKTNV-1" vertex="1">
          <mxGeometry x="45" y="210" width="120" height="40" as="geometry" />
        </mxCell>
        <mxCell id="UN8iPi8M0M4lKCketsCk-1" value="Фотоловушка 1" style="rounded=1;whiteSpace=wrap;html=1;fontSize=12;glass=0;strokeWidth=1;shadow=0;labelBackgroundColor=none;fillColor=#BC6C25;strokeColor=#DDA15E;fontColor=#FEFAE0;" parent="WIyWlLk6GJQsqaUBKTNV-1" vertex="1">
          <mxGeometry x="45" y="130" width="120" height="40" as="geometry" />
        </mxCell>
        <mxCell id="UN8iPi8M0M4lKCketsCk-2" value="Работник заповедника" style="rounded=1;whiteSpace=wrap;html=1;fontSize=12;glass=0;strokeWidth=1;shadow=0;labelBackgroundColor=none;fillColor=#BC6C25;strokeColor=#DDA15E;fontColor=#FEFAE0;" parent="WIyWlLk6GJQsqaUBKTNV-1" vertex="1">
          <mxGeometry x="245" y="170" width="120" height="40" as="geometry" />
        </mxCell>
        <mxCell id="UN8iPi8M0M4lKCketsCk-5" value="SD card" style="text;html=1;strokeColor=none;fillColor=#423e47;align=center;verticalAlign=middle;whiteSpace=wrap;rounded=0;labelBackgroundColor=none;fontColor=#FEFAE0;" parent="WIyWlLk6GJQsqaUBKTNV-1" vertex="1">
          <mxGeometry x="175" y="150" width="60" height="30" as="geometry" />
        </mxCell>
        <mxCell id="UN8iPi8M0M4lKCketsCk-6" value="" style="rounded=0;html=1;jettySize=auto;orthogonalLoop=1;fontSize=11;endArrow=block;endFill=0;endSize=8;strokeWidth=1;shadow=0;labelBackgroundColor=none;edgeStyle=orthogonalEdgeStyle;entryX=0;entryY=0.5;entryDx=0;entryDy=0;strokeColor=#000000;fontColor=default;" parent="WIyWlLk6GJQsqaUBKTNV-1" edge="1" target="E1cWPZ0sb_W8jcI9UWx0-8">
          <mxGeometry relative="1" as="geometry">
            <mxPoint x="365" y="189.51999999999998" as="sourcePoint" />
            <mxPoint x="445" y="189.51999999999998" as="targetPoint" />
          </mxGeometry>
        </mxCell>
        <mxCell id="UN8iPi8M0M4lKCketsCk-7" value="Ручная загрузка фотографий через интерфейс программы на ПК" style="text;html=1;strokeColor=none;fillColor=#423e47;align=center;verticalAlign=middle;whiteSpace=wrap;rounded=0;labelBackgroundColor=none;fontColor=#FEFAE0;gradientColor=none;" parent="WIyWlLk6GJQsqaUBKTNV-1" vertex="1">
          <mxGeometry x="375" y="90" width="100" height="90" as="geometry" />
        </mxCell>
        <mxCell id="UN8iPi8M0M4lKCketsCk-11" value="Каждый снимок имеет в себе информацию о времени, дате снимка и номер фотоловушки с которой он был сделан" style="text;html=1;strokeColor=none;fillColor=#423e47;align=center;verticalAlign=middle;whiteSpace=wrap;rounded=0;labelBackgroundColor=none;fontColor=#FEFAE0;" parent="WIyWlLk6GJQsqaUBKTNV-1" vertex="1">
          <mxGeometry x="40" y="260" width="130" height="120" as="geometry" />
        </mxCell>
        <mxCell id="UN8iPi8M0M4lKCketsCk-17" value="Так как каждый раз SD карты очищаются, то мы имеем набор снимков за определенный период, например:&lt;br&gt;30.05.2023 - 30.06.2023" style="rounded=0;whiteSpace=wrap;html=1;labelBackgroundColor=none;fillColor=#423e47;strokeColor=none;fontColor=#FEFAE0;" parent="WIyWlLk6GJQsqaUBKTNV-1" vertex="1">
          <mxGeometry x="215" y="300" width="130" height="140" as="geometry" />
        </mxCell>
        <mxCell id="UN8iPi8M0M4lKCketsCk-23" value="ПК работника" style="rounded=1;whiteSpace=wrap;html=1;fontSize=12;glass=0;strokeWidth=1;shadow=0;labelBackgroundColor=none;fillColor=#BC6C25;strokeColor=#DDA15E;fontColor=#FEFAE0;" parent="WIyWlLk6GJQsqaUBKTNV-1" vertex="1">
          <mxGeometry x="600" y="380" width="135" height="60" as="geometry" />
        </mxCell>
        <mxCell id="UN8iPi8M0M4lKCketsCk-26" value="&lt;span style=&quot;color: rgb(254, 250, 224); font-family: Helvetica; font-size: 12px; font-style: normal; font-variant-ligatures: normal; font-variant-caps: normal; font-weight: 400; letter-spacing: normal; orphans: 2; text-align: center; text-indent: 0px; text-transform: none; widows: 2; word-spacing: 0px; -webkit-text-stroke-width: 0px; background-color: rgb(251, 251, 251); text-decoration-thickness: initial; text-decoration-style: initial; text-decoration-color: initial; float: none; display: inline !important;&quot;&gt;Волки&lt;/span&gt;" style="rounded=0;whiteSpace=wrap;html=1;labelBackgroundColor=none;fillColor=#BC6C25;strokeColor=#DDA15E;fontColor=#FEFAE0;" parent="WIyWlLk6GJQsqaUBKTNV-1" vertex="1">
          <mxGeometry x="520" y="480" width="320" height="320" as="geometry" />
        </mxCell>
        <mxCell id="UN8iPi8M0M4lKCketsCk-28" value="" style="endArrow=none;dashed=1;html=1;dashPattern=1 3;strokeWidth=2;rounded=0;exitX=0;exitY=0.25;exitDx=0;exitDy=0;entryX=1;entryY=0.25;entryDx=0;entryDy=0;labelBackgroundColor=none;strokeColor=#DDA15E;fontColor=default;" parent="WIyWlLk6GJQsqaUBKTNV-1" source="UN8iPi8M0M4lKCketsCk-26" target="UN8iPi8M0M4lKCketsCk-26" edge="1">
          <mxGeometry width="50" height="50" relative="1" as="geometry">
            <mxPoint x="600" y="570" as="sourcePoint" />
            <mxPoint x="650" y="520" as="targetPoint" />
          </mxGeometry>
        </mxCell>
        <mxCell id="UN8iPi8M0M4lKCketsCk-31" value="" style="endArrow=none;dashed=1;html=1;dashPattern=1 3;strokeWidth=2;rounded=0;exitX=0;exitY=0.25;exitDx=0;exitDy=0;entryX=1;entryY=0.25;entryDx=0;entryDy=0;labelBackgroundColor=none;strokeColor=#DDA15E;fontColor=default;" parent="WIyWlLk6GJQsqaUBKTNV-1" edge="1">
          <mxGeometry width="50" height="50" relative="1" as="geometry">
            <mxPoint x="520" y="639.52" as="sourcePoint" />
            <mxPoint x="840" y="639.52" as="targetPoint" />
          </mxGeometry>
        </mxCell>
        <mxCell id="UN8iPi8M0M4lKCketsCk-33" value="" style="endArrow=none;dashed=1;html=1;dashPattern=1 3;strokeWidth=2;rounded=0;exitX=0;exitY=0.25;exitDx=0;exitDy=0;entryX=1;entryY=0.25;entryDx=0;entryDy=0;labelBackgroundColor=none;strokeColor=#DDA15E;fontColor=default;" parent="WIyWlLk6GJQsqaUBKTNV-1" edge="1">
          <mxGeometry width="50" height="50" relative="1" as="geometry">
            <mxPoint x="520" y="720" as="sourcePoint" />
            <mxPoint x="840" y="720" as="targetPoint" />
          </mxGeometry>
        </mxCell>
        <mxCell id="UN8iPi8M0M4lKCketsCk-35" value="" style="endArrow=none;dashed=1;html=1;dashPattern=1 3;strokeWidth=2;rounded=0;exitX=0.25;exitY=0;exitDx=0;exitDy=0;entryX=0.25;entryY=1;entryDx=0;entryDy=0;labelBackgroundColor=none;strokeColor=#DDA15E;fontColor=default;" parent="WIyWlLk6GJQsqaUBKTNV-1" source="UN8iPi8M0M4lKCketsCk-26" target="UN8iPi8M0M4lKCketsCk-26" edge="1">
          <mxGeometry width="50" height="50" relative="1" as="geometry">
            <mxPoint x="530" y="570" as="sourcePoint" />
            <mxPoint x="850" y="570" as="targetPoint" />
          </mxGeometry>
        </mxCell>
        <mxCell id="UN8iPi8M0M4lKCketsCk-36" value="" style="endArrow=none;dashed=1;html=1;dashPattern=1 3;strokeWidth=2;rounded=0;exitX=0.25;exitY=0;exitDx=0;exitDy=0;entryX=0.25;entryY=1;entryDx=0;entryDy=0;labelBackgroundColor=none;strokeColor=#DDA15E;fontColor=default;" parent="WIyWlLk6GJQsqaUBKTNV-1" edge="1">
          <mxGeometry width="50" height="50" relative="1" as="geometry">
            <mxPoint x="680" y="480" as="sourcePoint" />
            <mxPoint x="680" y="800" as="targetPoint" />
          </mxGeometry>
        </mxCell>
        <mxCell id="UN8iPi8M0M4lKCketsCk-37" value="" style="endArrow=none;dashed=1;html=1;dashPattern=1 3;strokeWidth=2;rounded=0;exitX=0.25;exitY=0;exitDx=0;exitDy=0;entryX=0.25;entryY=1;entryDx=0;entryDy=0;labelBackgroundColor=none;strokeColor=#DDA15E;fontColor=default;" parent="WIyWlLk6GJQsqaUBKTNV-1" edge="1">
          <mxGeometry width="50" height="50" relative="1" as="geometry">
            <mxPoint x="760" y="480" as="sourcePoint" />
            <mxPoint x="760" y="800" as="targetPoint" />
          </mxGeometry>
        </mxCell>
        <mxCell id="UN8iPi8M0M4lKCketsCk-52" value="" style="ellipse;whiteSpace=wrap;html=1;fillColor=#e3c800;fontColor=#000000;strokeColor=#B09500;labelBackgroundColor=none;" parent="WIyWlLk6GJQsqaUBKTNV-1" vertex="1">
          <mxGeometry x="520" y="505" width="20" height="20" as="geometry" />
        </mxCell>
        <mxCell id="UN8iPi8M0M4lKCketsCk-54" value="" style="ellipse;whiteSpace=wrap;html=1;fillColor=#e3c800;fontColor=#000000;strokeColor=#B09500;labelBackgroundColor=none;" parent="WIyWlLk6GJQsqaUBKTNV-1" vertex="1">
          <mxGeometry x="605" y="505" width="20" height="20" as="geometry" />
        </mxCell>
        <mxCell id="UN8iPi8M0M4lKCketsCk-55" value="" style="ellipse;whiteSpace=wrap;html=1;fillColor=#e3c800;fontColor=#000000;strokeColor=#B09500;labelBackgroundColor=none;" parent="WIyWlLk6GJQsqaUBKTNV-1" vertex="1">
          <mxGeometry x="685" y="505" width="20" height="20" as="geometry" />
        </mxCell>
        <mxCell id="UN8iPi8M0M4lKCketsCk-56" value="&lt;b&gt;&lt;font face=&quot;Times New Roman&quot;&gt;1&lt;/font&gt;&lt;/b&gt;" style="text;html=1;strokeColor=none;fillColor=none;align=center;verticalAlign=middle;whiteSpace=wrap;rounded=0;labelBackgroundColor=none;fontColor=#FEFAE0;" parent="WIyWlLk6GJQsqaUBKTNV-1" vertex="1">
          <mxGeometry x="525" y="505" width="10" height="20" as="geometry" />
        </mxCell>
        <mxCell id="UN8iPi8M0M4lKCketsCk-58" value="&lt;b&gt;&lt;font face=&quot;Times New Roman&quot;&gt;2&lt;/font&gt;&lt;/b&gt;" style="text;html=1;strokeColor=none;fillColor=none;align=center;verticalAlign=middle;whiteSpace=wrap;rounded=0;labelBackgroundColor=none;fontColor=#FEFAE0;" parent="WIyWlLk6GJQsqaUBKTNV-1" vertex="1">
          <mxGeometry x="610" y="505" width="10" height="20" as="geometry" />
        </mxCell>
        <mxCell id="UN8iPi8M0M4lKCketsCk-59" value="&lt;b&gt;&lt;font face=&quot;Times New Roman&quot;&gt;3&lt;/font&gt;&lt;/b&gt;" style="text;html=1;strokeColor=none;fillColor=none;align=center;verticalAlign=middle;whiteSpace=wrap;rounded=0;labelBackgroundColor=none;fontColor=#FEFAE0;" parent="WIyWlLk6GJQsqaUBKTNV-1" vertex="1">
          <mxGeometry x="690" y="505" width="10" height="20" as="geometry" />
        </mxCell>
        <mxCell id="UN8iPi8M0M4lKCketsCk-64" value="Медведи" style="text;html=1;strokeColor=none;fillColor=none;align=center;verticalAlign=middle;whiteSpace=wrap;rounded=0;labelBackgroundColor=none;fontColor=#FEFAE0;" parent="WIyWlLk6GJQsqaUBKTNV-1" vertex="1">
          <mxGeometry x="540" y="500" width="60" height="30" as="geometry" />
        </mxCell>
        <mxCell id="UN8iPi8M0M4lKCketsCk-65" value="Волки" style="text;html=1;strokeColor=none;fillColor=none;align=center;verticalAlign=middle;whiteSpace=wrap;rounded=0;labelBackgroundColor=none;fontColor=#FEFAE0;" parent="WIyWlLk6GJQsqaUBKTNV-1" vertex="1">
          <mxGeometry x="620" y="500" width="60" height="30" as="geometry" />
        </mxCell>
        <mxCell id="UN8iPi8M0M4lKCketsCk-66" value="Лоси" style="text;html=1;strokeColor=none;fillColor=none;align=center;verticalAlign=middle;whiteSpace=wrap;rounded=0;labelBackgroundColor=none;fontColor=#FEFAE0;" parent="WIyWlLk6GJQsqaUBKTNV-1" vertex="1">
          <mxGeometry x="695" y="500" width="60" height="30" as="geometry" />
        </mxCell>
        <mxCell id="UN8iPi8M0M4lKCketsCk-67" value="" style="endArrow=none;html=1;rounded=0;labelBackgroundColor=none;strokeColor=#000000;fontColor=default;exitX=0.5;exitY=0;exitDx=0;exitDy=0;" parent="WIyWlLk6GJQsqaUBKTNV-1" edge="1" source="UN8iPi8M0M4lKCketsCk-17">
          <mxGeometry width="50" height="50" relative="1" as="geometry">
            <mxPoint x="265" y="290" as="sourcePoint" />
            <mxPoint x="205" y="200" as="targetPoint" />
          </mxGeometry>
        </mxCell>
        <mxCell id="E1cWPZ0sb_W8jcI9UWx0-7" value="Сервер" style="text;html=1;strokeColor=none;fillColor=none;align=center;verticalAlign=middle;whiteSpace=wrap;rounded=0;" vertex="1" parent="WIyWlLk6GJQsqaUBKTNV-1">
          <mxGeometry x="550" y="130" width="60" height="30" as="geometry" />
        </mxCell>
        <mxCell id="E1cWPZ0sb_W8jcI9UWx0-8" value="Трекер объектов" style="rounded=1;whiteSpace=wrap;html=1;fontSize=12;glass=0;strokeWidth=1;shadow=0;labelBackgroundColor=none;fillColor=#BC6C25;strokeColor=#DDA15E;fontColor=#FEFAE0;" vertex="1" parent="WIyWlLk6GJQsqaUBKTNV-1">
          <mxGeometry x="595" y="170" width="125" height="40" as="geometry" />
        </mxCell>
        <mxCell id="E1cWPZ0sb_W8jcI9UWx0-9" value="Классификация каждого объекта" style="rounded=1;whiteSpace=wrap;html=1;fontSize=12;glass=0;strokeWidth=1;shadow=0;labelBackgroundColor=none;fillColor=#BC6C25;strokeColor=#DDA15E;fontColor=#FEFAE0;" vertex="1" parent="WIyWlLk6GJQsqaUBKTNV-1">
          <mxGeometry x="770" y="170" width="120" height="40" as="geometry" />
        </mxCell>
        <mxCell id="E1cWPZ0sb_W8jcI9UWx0-11" value="" style="rounded=0;html=1;jettySize=auto;orthogonalLoop=1;fontSize=11;endArrow=block;endFill=0;endSize=8;strokeWidth=1;shadow=0;labelBackgroundColor=none;edgeStyle=orthogonalEdgeStyle;entryX=0;entryY=0.5;entryDx=0;entryDy=0;strokeColor=#000000;fontColor=default;exitX=1;exitY=0.5;exitDx=0;exitDy=0;" edge="1" parent="WIyWlLk6GJQsqaUBKTNV-1" source="E1cWPZ0sb_W8jcI9UWx0-8" target="E1cWPZ0sb_W8jcI9UWx0-9">
          <mxGeometry relative="1" as="geometry">
            <mxPoint x="635" y="249.99999999999997" as="sourcePoint" />
            <mxPoint x="865" y="250.48" as="targetPoint" />
          </mxGeometry>
        </mxCell>
        <mxCell id="E1cWPZ0sb_W8jcI9UWx0-12" value="Сохранение информации о каждом нужном объекте в бд" style="rounded=1;whiteSpace=wrap;html=1;fontSize=12;glass=0;strokeWidth=1;shadow=0;labelBackgroundColor=none;fillColor=#BC6C25;strokeColor=#DDA15E;fontColor=#FEFAE0;" vertex="1" parent="WIyWlLk6GJQsqaUBKTNV-1">
          <mxGeometry x="940" y="160" width="170" height="60" as="geometry" />
        </mxCell>
        <mxCell id="E1cWPZ0sb_W8jcI9UWx0-13" value="" style="rounded=0;html=1;jettySize=auto;orthogonalLoop=1;fontSize=11;endArrow=block;endFill=0;endSize=8;strokeWidth=1;shadow=0;labelBackgroundColor=none;edgeStyle=orthogonalEdgeStyle;entryX=0;entryY=0.5;entryDx=0;entryDy=0;strokeColor=#000000;fontColor=default;exitX=1;exitY=0.5;exitDx=0;exitDy=0;" edge="1" parent="WIyWlLk6GJQsqaUBKTNV-1">
          <mxGeometry relative="1" as="geometry">
            <mxPoint x="890" y="189.5" as="sourcePoint" />
            <mxPoint x="940" y="189.5" as="targetPoint" />
          </mxGeometry>
        </mxCell>
        <mxCell id="E1cWPZ0sb_W8jcI9UWx0-14" value="Отправка работнику статистики по запросу" style="rounded=1;whiteSpace=wrap;html=1;fontSize=12;glass=0;strokeWidth=1;shadow=0;labelBackgroundColor=none;fillColor=#BC6C25;strokeColor=#DDA15E;fontColor=#FEFAE0;" vertex="1" parent="WIyWlLk6GJQsqaUBKTNV-1">
          <mxGeometry x="600" y="260" width="135" height="40" as="geometry" />
        </mxCell>
        <mxCell id="E1cWPZ0sb_W8jcI9UWx0-15" value="" style="rounded=0;html=1;jettySize=auto;orthogonalLoop=1;fontSize=11;endArrow=block;endFill=0;endSize=8;strokeWidth=1;shadow=0;labelBackgroundColor=none;edgeStyle=orthogonalEdgeStyle;entryX=1;entryY=0.5;entryDx=0;entryDy=0;strokeColor=#000000;fontColor=default;exitX=0.5;exitY=1;exitDx=0;exitDy=0;" edge="1" parent="WIyWlLk6GJQsqaUBKTNV-1" source="E1cWPZ0sb_W8jcI9UWx0-12" target="E1cWPZ0sb_W8jcI9UWx0-14">
          <mxGeometry relative="1" as="geometry">
            <mxPoint x="900" y="199.5" as="sourcePoint" />
            <mxPoint x="950" y="199.5" as="targetPoint" />
          </mxGeometry>
        </mxCell>
        <mxCell id="E1cWPZ0sb_W8jcI9UWx0-16" value="DB(PostgreSQL?)" style="text;html=1;strokeColor=none;fillColor=#423e47;align=center;verticalAlign=middle;whiteSpace=wrap;rounded=0;labelBackgroundColor=none;fontColor=#FEFAE0;" vertex="1" parent="WIyWlLk6GJQsqaUBKTNV-1">
          <mxGeometry x="850" y="250" width="110" height="30" as="geometry" />
        </mxCell>
        <mxCell id="E1cWPZ0sb_W8jcI9UWx0-17" value="" style="rounded=0;html=1;jettySize=auto;orthogonalLoop=1;fontSize=11;endArrow=block;endFill=0;endSize=8;strokeWidth=1;shadow=0;labelBackgroundColor=none;edgeStyle=orthogonalEdgeStyle;strokeColor=#000000;fontColor=default;exitX=0.5;exitY=1;exitDx=0;exitDy=0;entryX=0.5;entryY=0;entryDx=0;entryDy=0;" edge="1" parent="WIyWlLk6GJQsqaUBKTNV-1" source="E1cWPZ0sb_W8jcI9UWx0-14" target="UN8iPi8M0M4lKCketsCk-23">
          <mxGeometry relative="1" as="geometry">
            <mxPoint x="730" y="200" as="sourcePoint" />
            <mxPoint x="780" y="360" as="targetPoint" />
          </mxGeometry>
        </mxCell>
        <mxCell id="E1cWPZ0sb_W8jcI9UWx0-18" value="Лисы" style="text;html=1;strokeColor=none;fillColor=none;align=center;verticalAlign=middle;whiteSpace=wrap;rounded=0;labelBackgroundColor=none;fontColor=#FEFAE0;" vertex="1" parent="WIyWlLk6GJQsqaUBKTNV-1">
          <mxGeometry x="620" y="520" width="60" height="30" as="geometry" />
        </mxCell>
        <mxCell id="E1cWPZ0sb_W8jcI9UWx0-19" value="" style="ellipse;whiteSpace=wrap;html=1;fillColor=#e3c800;fontColor=#000000;strokeColor=#B09500;labelBackgroundColor=none;" vertex="1" parent="WIyWlLk6GJQsqaUBKTNV-1">
          <mxGeometry x="605" y="525" width="20" height="20" as="geometry" />
        </mxCell>
        <mxCell id="E1cWPZ0sb_W8jcI9UWx0-20" value="&lt;b&gt;&lt;font face=&quot;Times New Roman&quot;&gt;5&lt;/font&gt;&lt;/b&gt;" style="text;html=1;strokeColor=none;fillColor=none;align=center;verticalAlign=middle;whiteSpace=wrap;rounded=0;labelBackgroundColor=none;fontColor=#FEFAE0;" vertex="1" parent="WIyWlLk6GJQsqaUBKTNV-1">
          <mxGeometry x="610" y="525" width="10" height="20" as="geometry" />
        </mxCell>
        <mxCell id="E1cWPZ0sb_W8jcI9UWx0-33" value="&lt;font style=&quot;font-size: 14px;&quot; color=&quot;#ffffff&quot;&gt;&lt;b&gt;Карта местности&lt;/b&gt;&lt;/font&gt;" style="text;html=1;strokeColor=none;fillColor=none;align=center;verticalAlign=middle;whiteSpace=wrap;rounded=0;" vertex="1" parent="WIyWlLk6GJQsqaUBKTNV-1">
          <mxGeometry x="520" y="450" width="130" height="30" as="geometry" />
        </mxCell>
        <mxCell id="E1cWPZ0sb_W8jcI9UWx0-34" value="" style="rounded=0;html=1;jettySize=auto;orthogonalLoop=1;fontSize=11;endArrow=block;endFill=0;endSize=8;strokeWidth=1;shadow=0;labelBackgroundColor=none;edgeStyle=orthogonalEdgeStyle;strokeColor=#000000;fontColor=default;exitX=0.5;exitY=1;exitDx=0;exitDy=0;" edge="1" parent="WIyWlLk6GJQsqaUBKTNV-1" source="UN8iPi8M0M4lKCketsCk-23">
          <mxGeometry relative="1" as="geometry">
            <mxPoint x="667.19" y="450" as="sourcePoint" />
            <mxPoint x="667" y="480" as="targetPoint" />
          </mxGeometry>
        </mxCell>
        <mxCell id="E1cWPZ0sb_W8jcI9UWx0-38" value="Инференс на PyTriton" style="rounded=0;whiteSpace=wrap;html=1;labelBackgroundColor=none;fillColor=#423e47;strokeColor=none;fontColor=#FEFAE0;" vertex="1" parent="WIyWlLk6GJQsqaUBKTNV-1">
          <mxGeometry x="430" y="350" width="90" height="90" as="geometry" />
        </mxCell>
        <mxCell id="E1cWPZ0sb_W8jcI9UWx0-39" value="" style="endArrow=none;html=1;rounded=0;labelBackgroundColor=none;strokeColor=#000000;fontColor=default;exitX=0.5;exitY=0;exitDx=0;exitDy=0;" edge="1" parent="WIyWlLk6GJQsqaUBKTNV-1" source="E1cWPZ0sb_W8jcI9UWx0-38">
          <mxGeometry width="50" height="50" relative="1" as="geometry">
            <mxPoint x="499.85000000000025" y="275" as="sourcePoint" />
            <mxPoint x="560.1441176470593" y="250" as="targetPoint" />
          </mxGeometry>
        </mxCell>
        <mxCell id="E1cWPZ0sb_W8jcI9UWx0-40" value="Трекер на yolo" style="rounded=0;whiteSpace=wrap;html=1;labelBackgroundColor=none;fillColor=#423e47;strokeColor=none;fontColor=#FEFAE0;" vertex="1" parent="WIyWlLk6GJQsqaUBKTNV-1">
          <mxGeometry x="365" y="-90" width="90" height="90" as="geometry" />
        </mxCell>
        <mxCell id="E1cWPZ0sb_W8jcI9UWx0-41" value="" style="endArrow=none;html=1;rounded=0;labelBackgroundColor=none;strokeColor=#000000;fontColor=default;entryX=1;entryY=1;entryDx=0;entryDy=0;exitX=0.5;exitY=0;exitDx=0;exitDy=0;" edge="1" parent="WIyWlLk6GJQsqaUBKTNV-1" source="E1cWPZ0sb_W8jcI9UWx0-8" target="E1cWPZ0sb_W8jcI9UWx0-40">
          <mxGeometry width="50" height="50" relative="1" as="geometry">
            <mxPoint x="530" y="360" as="sourcePoint" />
            <mxPoint x="610" y="310" as="targetPoint" />
          </mxGeometry>
        </mxCell>
        <mxCell id="E1cWPZ0sb_W8jcI9UWx0-42" value="" style="rounded=1;whiteSpace=wrap;html=1;fontSize=12;glass=0;strokeWidth=1;shadow=0;labelBackgroundColor=none;fillColor=#c08e62;strokeColor=#d19a7a;fontColor=#FEFAE0;" vertex="1" parent="WIyWlLk6GJQsqaUBKTNV-1">
          <mxGeometry x="660" y="-172.5" width="340" height="105" as="geometry" />
        </mxCell>
        <mxCell id="E1cWPZ0sb_W8jcI9UWx0-43" value="GoogleDrive с&lt;br&gt;весами и тренировочными данными" style="rounded=1;whiteSpace=wrap;html=1;fontSize=12;glass=0;strokeWidth=1;shadow=0;labelBackgroundColor=none;fillColor=#BC6C25;strokeColor=#DDA15E;fontColor=#FEFAE0;" vertex="1" parent="WIyWlLk6GJQsqaUBKTNV-1">
          <mxGeometry x="758.75" y="-10" width="142.5" height="60" as="geometry" />
        </mxCell>
        <mxCell id="E1cWPZ0sb_W8jcI9UWx0-44" value="" style="rounded=0;html=1;jettySize=auto;orthogonalLoop=1;fontSize=11;endArrow=block;endFill=0;endSize=8;strokeWidth=1;shadow=0;labelBackgroundColor=none;edgeStyle=orthogonalEdgeStyle;entryX=0.5;entryY=0;entryDx=0;entryDy=0;strokeColor=#000000;fontColor=default;exitX=0.5;exitY=1;exitDx=0;exitDy=0;" edge="1" parent="WIyWlLk6GJQsqaUBKTNV-1" source="E1cWPZ0sb_W8jcI9UWx0-43" target="E1cWPZ0sb_W8jcI9UWx0-9">
          <mxGeometry relative="1" as="geometry">
            <mxPoint x="375" y="199.51999999999998" as="sourcePoint" />
            <mxPoint x="605" y="200" as="targetPoint" />
          </mxGeometry>
        </mxCell>
        <mxCell id="E1cWPZ0sb_W8jcI9UWx0-45" value="dvc" style="text;html=1;strokeColor=none;fillColor=#423e47;align=center;verticalAlign=middle;whiteSpace=wrap;rounded=0;labelBackgroundColor=none;fontColor=#FEFAE0;" vertex="1" parent="WIyWlLk6GJQsqaUBKTNV-1">
          <mxGeometry x="830" y="60" width="60" height="30" as="geometry" />
        </mxCell>
        <mxCell id="E1cWPZ0sb_W8jcI9UWx0-46" value="dvc" style="text;html=1;strokeColor=none;fillColor=#423e47;align=center;verticalAlign=middle;whiteSpace=wrap;rounded=0;labelBackgroundColor=none;fontColor=#FEFAE0;" vertex="1" parent="WIyWlLk6GJQsqaUBKTNV-1">
          <mxGeometry x="830" y="-60" width="60" height="30" as="geometry" />
        </mxCell>
        <mxCell id="E1cWPZ0sb_W8jcI9UWx0-47" value="AutoML(Лама?)&lt;br&gt;для понимания бейзлайна" style="rounded=1;whiteSpace=wrap;html=1;fontSize=12;glass=0;strokeWidth=1;shadow=0;labelBackgroundColor=none;fillColor=#BC6C25;strokeColor=#DDA15E;fontColor=#FEFAE0;" vertex="1" parent="WIyWlLk6GJQsqaUBKTNV-1">
          <mxGeometry x="680" y="-150" width="142.5" height="60" as="geometry" />
        </mxCell>
        <mxCell id="E1cWPZ0sb_W8jcI9UWx0-48" value="тюнинг своих ML решений" style="rounded=1;whiteSpace=wrap;html=1;fontSize=12;glass=0;strokeWidth=1;shadow=0;labelBackgroundColor=none;fillColor=#BC6C25;strokeColor=#DDA15E;fontColor=#FEFAE0;" vertex="1" parent="WIyWlLk6GJQsqaUBKTNV-1">
          <mxGeometry x="840" y="-150" width="142.5" height="60" as="geometry" />
        </mxCell>
        <mxCell id="E1cWPZ0sb_W8jcI9UWx0-49" value="" style="rounded=0;html=1;jettySize=auto;orthogonalLoop=1;fontSize=11;endArrow=block;endFill=0;endSize=8;strokeWidth=1;shadow=0;labelBackgroundColor=none;edgeStyle=orthogonalEdgeStyle;entryX=0.5;entryY=0;entryDx=0;entryDy=0;strokeColor=#000000;fontColor=default;exitX=0.5;exitY=1;exitDx=0;exitDy=0;" edge="1" parent="WIyWlLk6GJQsqaUBKTNV-1" source="E1cWPZ0sb_W8jcI9UWx0-42" target="E1cWPZ0sb_W8jcI9UWx0-43">
          <mxGeometry relative="1" as="geometry">
            <mxPoint x="840" y="60" as="sourcePoint" />
            <mxPoint x="840" y="180" as="targetPoint" />
          </mxGeometry>
        </mxCell>
        <mxCell id="E1cWPZ0sb_W8jcI9UWx0-50" value="Разметка изображений&lt;br&gt;(если кому-то не будет лень)" style="rounded=1;whiteSpace=wrap;html=1;fontSize=12;glass=0;strokeWidth=1;shadow=0;labelBackgroundColor=none;fillColor=#BC6C25;strokeColor=#DDA15E;fontColor=#FEFAE0;" vertex="1" parent="WIyWlLk6GJQsqaUBKTNV-1">
          <mxGeometry x="990" y="-10" width="180" height="60" as="geometry" />
        </mxCell>
        <mxCell id="E1cWPZ0sb_W8jcI9UWx0-51" value="" style="rounded=0;html=1;jettySize=auto;orthogonalLoop=1;fontSize=11;endArrow=block;endFill=0;endSize=8;strokeWidth=1;shadow=0;labelBackgroundColor=none;edgeStyle=orthogonalEdgeStyle;entryX=1;entryY=0.5;entryDx=0;entryDy=0;strokeColor=#000000;fontColor=default;exitX=0;exitY=0.5;exitDx=0;exitDy=0;" edge="1" parent="WIyWlLk6GJQsqaUBKTNV-1" source="E1cWPZ0sb_W8jcI9UWx0-50" target="E1cWPZ0sb_W8jcI9UWx0-43">
          <mxGeometry relative="1" as="geometry">
            <mxPoint x="840" y="60" as="sourcePoint" />
            <mxPoint x="840" y="180" as="targetPoint" />
          </mxGeometry>
        </mxCell>
        <mxCell id="E1cWPZ0sb_W8jcI9UWx0-52" value="dvc" style="text;html=1;strokeColor=none;fillColor=#423e47;align=center;verticalAlign=middle;whiteSpace=wrap;rounded=0;labelBackgroundColor=none;fontColor=#FEFAE0;" vertex="1" parent="WIyWlLk6GJQsqaUBKTNV-1">
          <mxGeometry x="922.5" y="-10" width="60" height="30" as="geometry" />
        </mxCell>
      </root>
    </mxGraphModel>
  </diagram>
</mxfile>
